<?xml version="1.0" standalone="no"?>
<!DOCTYPE svg PUBLIC "-//W3C//DTD SVG 20010904//EN"
 "http://www.w3.org/TR/2001/REC-SVG-20010904/DTD/svg10.dtd">
<svg version="1.0" xmlns="http://www.w3.org/2000/svg"
 width="200.000000pt" height="200.000000pt" viewBox="0 0 200.000000 200.000000"
 preserveAspectRatio="xMidYMid meet">

<g transform="translate(0.000000,200.000000) scale(0.100000,-0.100000)"
fill="#000000" stroke="none">
<path d="M1495 1536 c-147 -39 -145 -37 -145 -118 0 -39 3 -68 8 -66 214 104
338 114 428 36 48 -42 66 -80 66 -142 1 -106 -42 -168 -321 -461 l-190 -200
-1 -62 0 -63 330 0 330 0 0 60 0 60 -247 2 -248 3 161 170 c281 296 314 345
322 476 3 47 -1 91 -8 115 -33 100 -116 171 -230 198 -89 21 -149 19 -255 -8z"/>
<path d="M73 1485 c-38 -16 -63 -60 -63 -111 0 -54 53 -104 110 -104 57 0 110
50 110 104 0 52 -25 95 -65 112 -42 17 -51 17 -92 -1z"/>
<path d="M473 1485 c-38 -16 -63 -60 -63 -111 0 -53 53 -104 109 -104 117 0
153 171 46 216 -42 17 -51 17 -92 -1z"/>
<path d="M863 1480 c-39 -24 -53 -48 -53 -95 0 -101 108 -153 180 -87 61 54
47 152 -26 187 -42 20 -62 19 -101 -5z"/>
<path d="M84 1086 c-95 -41 -99 -167 -8 -211 73 -35 154 20 154 103 0 81 -77
138 -146 108z"/>
<path d="M500 1093 c-61 -20 -90 -57 -90 -113 0 -71 63 -127 127 -114 81 16
121 116 71 179 -17 22 -77 58 -90 54 -2 0 -10 -3 -18 -6z"/>
<path d="M900 1093 c-60 -17 -90 -56 -90 -118 0 -98 116 -147 185 -77 63 63
35 166 -51 191 -16 4 -36 6 -44 4z"/>
<path d="M44 656 c-26 -26 -34 -42 -34 -70 0 -49 23 -92 60 -111 78 -40 160
16 160 111 0 54 -53 104 -110 104 -34 0 -48 -6 -76 -34z"/>
<path d="M444 656 c-28 -28 -34 -41 -34 -78 0 -50 18 -82 60 -103 116 -60 218
100 120 188 -45 40 -101 38 -146 -7z"/>
<path d="M844 656 c-29 -29 -34 -41 -34 -79 0 -115 142 -159 201 -63 48 78 -5
176 -94 176 -31 0 -46 -7 -73 -34z"/>
</g>
</svg>
